<?xml version="1.0" encoding="utf-8"?>
<!-- Generator: Adobe Illustrator 16.0.4, SVG Export Plug-In . SVG Version: 6.00 Build 0)  -->
<!DOCTYPE svg PUBLIC "-//W3C//DTD SVG 1.1//EN" "http://www.w3.org/Graphics/SVG/1.1/DTD/svg11.dtd">
<svg version="1.1" id="Layer_1" xmlns="http://www.w3.org/2000/svg" xmlns:xlink="http://www.w3.org/1999/xlink" x="0px" y="0px"
	 width="428.697px" height="949.649px" viewBox="0.001 -279.351 428.697 949.649"
	 enable-background="new 0.001 -279.351 428.697 949.649" xml:space="preserve">
<circle fill="#0472B6" cx="216.497" cy="-39.133" r="48.878"/>
<g>
	<polygon fill="#2BABE2" points="215.546,191.674 328.404,190.593 323.213,187.127 215.546,172.659 	"/>
	<path fill="none" d="M173.403-57.994c0,0,8.855,31.548,42.178,33.378v-24.833C191.175-49.45,173.403-57.994,173.403-57.994z"/>
	<circle fill="none" cx="19.749" cy="-36.477" r="8.645"/>
	<path fill="none" d="M215.56-111.88c-8.89,0-16.095,7.206-16.095,16.097c0,1.317,0.178,2.589,0.475,3.812
		c1.718-7.048,8.05-12.285,15.62-12.285c0.008,0,0.015,0.004,0.021,0.004v-7.629C215.574-111.88,215.567-111.88,215.56-111.88z"/>
	<polygon fill="#FFFFFF" points="215.546,172.652 107.507,187.712 103.865,190.982 215.546,191.667 	"/>
	<polygon fill="#058DD1" points="215.546,162.615 215.546,162.595 104.014,187.723 107.507,187.712 215.546,174.069 	"/>
	<path fill="#2BABE2" d="M210.31,280.435v-10.258c-2.161-0.515-4.188-1.37-6.026-2.504l-7.259,7.258l-6.839-6.837l7.259-7.252
		c-1.135-1.84-1.988-3.866-2.505-6.034h-10.257v-9.665h10.257c0.516-2.163,1.369-4.192,2.502-6.032l-7.256-7.252l6.839-6.84
		l7.259,7.253c1.839-1.129,3.865-1.98,6.026-2.496v-10.261h5.271l-0.035-29.264H104.053c1.144,12.933,2.533,26.592,4.212,39.269
		c10.708,0.743,29.497,1.895,53.86,2.823c-1.628,5.247-2.505,10.824-2.505,16.604c0,8.331,1.831,16.236,5.099,23.336
		c-19.437-0.824-37.69-1.987-49.93-2.844c3.048,15.21,6.655,29.513,10.939,42.284l-0.572,0.072l-0.006,0.014
		c0.383,0,0.604,0,0.604,0s21.81,12.047,46.503,10.814c0,0-20.119,7.374-50.528,0.642c-7.3,25.206-24.023,87.485-27.855,141.165
		c-0.076,1.046-0.151,2.103-0.23,3.162l14.904,1.093c2.88-7.855,10.402-13.465,19.253-13.465c9.912,0,18.183,7.021,20.107,16.361
		l13.104,0.964c0.562-2.223,1.119-4.433,1.687-6.636c10.917-42.461,33.644-97.125,52.881-132.212l12.199-53.259H210.31V280.435z"/>
	<path fill="#2BABE2" d="M147.588,481.155c-2.376,8.711-10.321,15.122-19.788,15.122c-10.888,0-19.774-8.489-20.46-19.207
		l-14.277-1.446C88.905,532.26,83.59,594.197,82.099,611.38c6.671,5.628,18.364,11.727,18.364,11.727s-16.232-2.593-24.622-6.666
		c-76.021,5.886-49.393,48.444-36.921,52.766c6.722,2.328,64.504,0.208,64.504,0.208c41.493-1.973,41.655-9.882,41.493-20.577
		c-0.172-10.705-13.834-32.772-13.834-32.772s11.758-68.852,27.529-133.795L147.588,481.155z"/>
	<path fill="#2BABE2" d="M186.648,95.588c0,15.74,12.75,28.501,28.496,28.501c0.148,0,0.288-0.019,0.437-0.019v-4.427
		c-0.146,0.004-0.287,0.024-0.437,0.024c-13.303,0-24.081-10.779-24.081-24.08c0-0.792,0.047-1.564,0.121-2.332
		c0.019-0.189,0.05-0.372,0.074-0.557c0.065-0.554,0.146-1.1,0.248-1.639c0.055-0.276,0.116-0.554,0.179-0.825
		c0.098-0.429,0.205-0.849,0.325-1.268c0.094-0.324,0.191-0.649,0.296-0.973c0.111-0.329,0.234-0.653,0.358-0.977
		c0.146-0.373,0.285-0.749,0.444-1.115c0.072-0.157,0.151-0.31,0.227-0.467c0.746-1.597,1.655-3.097,2.716-4.479
		c0.031-0.039,0.055-0.076,0.085-0.115c0,0.006-0.003,0.006-0.003,0.01c2.161-2.783,4.915-5.081,8.08-6.695h-0.017
		c0.051-0.03,0.109-0.042,0.162-0.072c0.697-0.353,1.416-0.667,2.151-0.95c0.179-0.07,0.359-0.133,0.54-0.199
		c0.628-0.224,1.27-0.425,1.921-0.597c0.258-0.066,0.514-0.137,0.775-0.199c0.598-0.135,1.204-0.244,1.814-0.333
		c0.3-0.042,0.595-0.101,0.895-0.134c0.735-0.087,1.478-0.124,2.226-0.139c0.156-0.005,0.305-0.029,0.463-0.029
		c0.146,0,0.288,0.019,0.436,0.024v-4.427c-0.147-0.004-0.287-0.025-0.436-0.025C199.398,67.08,186.648,79.847,186.648,95.588z"/>
	<path fill="#2BABE2" d="M215.56-111.88c0.008,0,0.015,0,0.021,0v-52.292c-3.47,5.277-0.849,10.176-0.849,10.176
		c-6.172,0-12.347-16.053-12.347-16.053c-6.786,8.143-4.994,17.03-2.004,23.381c-34.767,10.062-45.822,38.182-45.822,48.657
		c0,10.474,11.424,90.733,11.424,90.733c-8.232,1.564-16.136,3.34-23.446,5.152c-0.501,13.058-3.624,23.317-3.624,16.898
		c0-4.665-2.48-10.146-5.1-14.644c-1.103,0.295-2.198,0.59-3.263,0.881c-25.615-11.076-58.996-29.541-68.173-53.362
		c-11.887,7.157-24.721,6.619-24.721,6.619c10.734-1.401,18.021-9.685,22.33-16.594c-0.695-5.624-0.502-11.813,0.384-18.379
		c-27.052-9.751-34.24-22.656-34.24-22.656c17.246,11.652,28.678,15.122,35.359,15.94c1.555-7.905,3.939-16.21,6.917-24.646
		c-26.882-9.74-34.044-22.574-34.044-22.574c18.223,12.309,29.958,15.487,36.454,16.055c3.002-7.839,6.42-15.696,10.021-23.336
		c-28.293-9.808-35.773-23.182-35.773-23.182c21.143,14.281,33.551,16.271,39.171,16.152c3.226-6.537,6.528-12.852,9.76-18.769
		c-29.618-9.851-37.405-23.728-37.405-23.728c25.417,17.174,38.214,16.575,41.762,15.906c8.593-15.158,16.084-26.848,19.228-31.632
		l33.739-5.642l-8.529-14.135l-22.148,6.232c0,0.006,0,0.025,0,0.025c0-0.011-0.012-0.015-0.017-0.023l-0.139,0.04l0.086-0.123
		c-10.582-16.469-28.603-13.999-28.603-13.999c25.296-5.229,28.389,12.021,28.654,13.926l3.836-5.542l18.506-21.776l-9.771-10.861
		l-19.134,16.348l13.32-26.465l-11.426-8.518l-17.697,27.783l4.41-27.702l-11.112-1.743l-6.878,26.566l-4.836-21.499l-10.811,0.094
		l1.088,23.998l-9.314,30.031l13.899,10.936l7.605-1.78l6.816,6.824l15.316-0.251l-15.428,4.025l-7.301-6.047l-7.123,1.005
		l-13.804-14.635l-0.194,0.639c0,0,0.03,0.054,0.073,0.127l-0.777-0.127c0,0-100.439,149.833-41.164,214.046
		C23.15-0.606,27.486,4.026,31.75,8.524c6.929-5.385,18.457-15.188,24.014-24.633c0,0-5.181,17.443-17.239,31.73
		c4.487,4.655,8.887,9.153,13.191,13.458c6.751-5.172,19.201-15.494,25.046-25.424c0,0-5.381,18.056-17.902,32.472
		c4.466,4.359,8.841,8.526,13.107,12.472c6.935-5.403,18.395-15.164,23.931-24.571c0,0-5.021,16.95-16.713,31.114
		c6.878,6.127,13.498,11.689,19.842,16.617c0,0.062,0,0.125,0,0.182c3.208-0.602,13.5-3.041,20.643-10.656
		c0,0-6.096,17.389-20.548,21.415c0.357,30.6,1.616,67.755,4.894,105.021l111.467-22.292l0.101,0.02v-31.362
		c-0.147,0-0.287,0.019-0.435,0.019c-21.275,0-38.52-17.241-38.52-38.519c0-21.278,17.246-38.519,38.52-38.519
		c0.146,0,0.287,0.02,0.435,0.024v-18.68L164.655,12.76l50.927,19.766v-57.142c-33.322-1.83-42.178-33.378-42.178-33.378
		s17.773,8.544,42.178,8.544v-54.803c-0.007,0-0.014-0.004-0.022-0.004c-7.57,0-13.901,5.237-15.619,12.285
		c-0.296-1.223-0.475-2.497-0.475-3.812C199.465-104.675,206.67-111.88,215.56-111.88z M19.749-27.833
		c-4.773,0-8.644-3.87-8.644-8.645c0-4.776,3.87-8.645,8.644-8.645c4.775,0,8.647,3.867,8.647,8.645
		C28.396-31.702,24.525-27.833,19.749-27.833z"/>
	<path fill="#2BABE2" d="M135.701,475.749c0-4.782-3.872-8.645-8.643-8.645c-4.774,0-8.647,3.865-8.647,8.645
		c0,4.772,3.872,8.639,8.647,8.639C131.83,484.387,135.701,480.521,135.701,475.749z"/>
	<path fill="#FFFFFF" d="M210.31,229.774c-2.161,0.515-4.188,1.367-6.026,2.496l-7.259-7.253l-6.839,6.84l7.256,7.252
		c-1.133,1.84-1.985,3.869-2.502,6.032h-10.257v9.665h10.257c0.516,2.168,1.37,4.193,2.505,6.034l-7.259,7.251l6.839,6.839
		l7.259-7.258c1.839,1.134,3.865,1.988,6.026,2.504v10.258h5.271v-60.921h-5.271V229.774z"/>
	<polygon fill="#FFFFFF" points="164.654,12.76 215.581,38.412 215.581,32.526 	"/>
	<path fill="#058DD1" d="M215.145,124.089c-15.746,0-28.496-12.761-28.496-28.501s12.75-28.506,28.496-28.506
		c0.148,0,0.288,0.02,0.437,0.024V57.093c-0.146-0.004-0.287-0.024-0.437-0.024c-21.273,0-38.519,17.242-38.519,38.519
		s17.246,38.519,38.519,38.519c0.148,0,0.288-0.019,0.437-0.019v-10.016C215.435,124.07,215.294,124.089,215.145,124.089z"/>
	<path fill="#F4F5F5" d="M204.36,74.085c0.699-0.352,1.416-0.667,2.151-0.949C205.776,73.418,205.06,73.733,204.36,74.085z"/>
	<path fill="#F4F5F5" d="M192.665,87.02c0.146-0.373,0.282-0.749,0.444-1.115C192.95,86.27,192.811,86.647,192.665,87.02z"/>
	<path fill="#F4F5F5" d="M206.363,96.04c3.859,0,7.242-1.982,9.218-4.985V78.922c-1.976-2.996-5.358-4.986-9.218-4.986
		c-0.732,0-1.452,0.083-2.149,0.22c-3.165,1.615-5.919,3.912-8.08,6.695c-0.523,1.277-0.817,2.669-0.817,4.132
		C195.316,91.094,200.265,96.04,206.363,96.04z"/>
	<path fill="#F4F5F5" d="M193.337,85.436c0.748-1.597,1.656-3.097,2.716-4.479C194.993,82.339,194.083,83.84,193.337,85.436z"/>
	<path fill="#F4F5F5" d="M197.823,104.852c-1.542-2.159-2.593-4.528-3.193-6.963c0.209,3.756,1.425,7.482,3.762,10.747
		c4.088,5.704,10.582,8.669,17.189,8.574V113.4C208.777,113.691,202.028,110.722,197.823,104.852z"/>
	<path fill="#F4F5F5" d="M191.185,93.256c0.019-0.189,0.05-0.372,0.074-0.557C191.234,92.884,191.203,93.066,191.185,93.256z"/>
	<path fill="#F4F5F5" d="M192.011,88.969c0.094-0.325,0.188-0.649,0.296-0.974C192.202,88.32,192.105,88.644,192.011,88.969z"/>
	<path fill="#F4F5F5" d="M209.749,72.143c0.597-0.139,1.203-0.24,1.815-0.334C210.951,71.898,210.346,72.007,209.749,72.143z"/>
	<path fill="#F4F5F5" d="M207.053,72.938c0.627-0.225,1.271-0.42,1.921-0.598C208.32,72.512,207.68,72.713,207.053,72.938z"/>
	<path fill="#F4F5F5" d="M191.507,91.06c0.055-0.276,0.116-0.554,0.179-0.825C191.623,90.508,191.562,90.784,191.507,91.06z"/>
	<path fill="#F4F5F5" d="M212.458,71.674c0.731-0.086,1.474-0.123,2.226-0.139C213.936,71.551,213.191,71.588,212.458,71.674z"/>
	<path fill="#00374F" d="M206.512,73.136c0.179-0.071,0.359-0.133,0.541-0.199C206.871,73.003,206.69,73.065,206.512,73.136z"/>
	<path fill="#00374F" d="M204.198,74.158h0.017c0.05-0.025,0.099-0.048,0.146-0.071C204.308,74.114,204.251,74.128,204.198,74.158z"
		/>
	<path fill="#00374F" d="M191.259,92.699c0.064-0.554,0.146-1.1,0.248-1.639C191.404,91.599,191.324,92.146,191.259,92.699z"/>
	<path fill="#00374F" d="M193.11,85.905c0.072-0.158,0.152-0.311,0.227-0.468C193.263,85.594,193.182,85.746,193.11,85.905z"/>
	<path fill="#00374F" d="M208.974,72.34c0.259-0.066,0.513-0.137,0.775-0.199C209.486,72.204,209.232,72.273,208.974,72.34z"/>
	<path fill="#00374F" d="M192.307,87.996c0.109-0.329,0.235-0.653,0.358-0.976C192.541,87.343,192.418,87.667,192.307,87.996z"/>
	<path fill="#00374F" d="M191.686,90.235c0.098-0.429,0.206-0.849,0.325-1.268C191.89,89.389,191.783,89.806,191.686,90.235z"/>
	<path fill="#00374F" d="M196.137,80.842c-0.03,0.039-0.053,0.077-0.085,0.115c0.029-0.033,0.055-0.072,0.082-0.105
		C196.134,80.848,196.137,80.848,196.137,80.842z"/>
	<path fill="#00374F" d="M215.145,119.663c-13.296,0-24.078-10.781-24.078-24.075c0-0.788,0.044-1.564,0.118-2.332
		c-0.074,0.768-0.121,1.54-0.121,2.332c0,13.301,10.778,24.08,24.081,24.08c0.148,0,0.288-0.021,0.437-0.024v-0.006
		C215.435,119.643,215.294,119.663,215.145,119.663z"/>
	<path fill="#00374F" d="M215.581,71.535v-0.004c-0.146-0.006-0.287-0.024-0.437-0.024c-0.156,0-0.306,0.024-0.461,0.028
		c0.154-0.004,0.308-0.024,0.461-0.024C215.294,71.511,215.435,71.531,215.581,71.535z"/>
	<path fill="#00374F" d="M211.564,71.808c0.298-0.042,0.593-0.101,0.894-0.134C212.157,71.707,211.862,71.765,211.564,71.808z"/>
	<path fill="#00374F" d="M215.145,119.663c0.148,0,0.288-0.02,0.437-0.026v-2.429c-6.607,0.094-13.102-2.869-17.189-8.575
		c-2.337-3.265-3.553-6.99-3.762-10.746c0.601,2.435,1.651,4.804,3.193,6.963c4.205,5.872,10.954,8.839,17.758,8.548V91.054
		c-1.976,3.002-5.358,4.985-9.218,4.985c-6.099,0-11.047-4.945-11.047-11.056c0-1.463,0.294-2.855,0.817-4.132
		c-0.027,0.033-0.053,0.072-0.082,0.105c-1.061,1.382-1.968,2.882-2.716,4.479c-0.075,0.157-0.154,0.311-0.227,0.467
		c-0.162,0.367-0.302,0.742-0.444,1.115c-0.123,0.325-0.249,0.648-0.358,0.977c-0.107,0.324-0.202,0.647-0.296,0.973
		c-0.119,0.419-0.228,0.838-0.325,1.268c-0.062,0.271-0.124,0.548-0.179,0.825c-0.103,0.539-0.184,1.086-0.248,1.639
		c-0.024,0.186-0.056,0.368-0.074,0.557c-0.074,0.768-0.118,1.544-0.118,2.332C191.066,108.881,201.851,119.663,215.145,119.663z"/>
	<path fill="#00374F" d="M215.581,78.922v-7.387c-0.146-0.004-0.287-0.024-0.437-0.024c-0.153,0-0.307,0.02-0.461,0.024
		c-0.752,0.016-1.495,0.053-2.226,0.139c-0.301,0.033-0.596,0.091-0.894,0.134c-0.613,0.094-1.219,0.196-1.815,0.334
		c-0.263,0.062-0.517,0.133-0.775,0.199c-0.649,0.177-1.294,0.373-1.921,0.597c-0.182,0.066-0.362,0.129-0.541,0.199
		c-0.735,0.282-1.451,0.597-2.151,0.95c-0.047,0.023-0.096,0.046-0.146,0.072c0.696-0.139,1.417-0.22,2.149-0.22
		C210.223,73.937,213.605,75.926,215.581,78.922z"/>
	<circle fill="#2BABE2" cx="406.886" cy="-36.477" r="8.645"/>
	<polygon fill="#0174B3" points="215.546,174.083 323.158,187.122 328.461,187.106 215.546,162.615 	"/>
	<path fill="#058DD1" d="M269.822,472.729l10.847-0.798c1.801-10.112,10.62-17.795,21.249-17.795
		c9.529,0,17.599,6.166,20.474,14.725l14.763-1.083c-0.078-1.12-0.157-2.243-0.24-3.354c-3.8-53.233-20.276-114.917-27.66-140.508
		c-28.626,5.562-47.359-1.298-47.359-1.298c19.862,0.997,37.834-6.594,44.115-9.604c-0.229-0.75-0.367-1.181-0.373-1.209h0.267
		h0.759c4.31-12.845,7.939-27.242,11.006-42.563c-12.872,0.678-31.426,1.602-50.894,2.407c3.082-6.942,4.81-14.616,4.81-22.703
		c0-5.494-0.807-10.799-2.282-15.817c24.548-0.823,43.633-2.253,54.811-3.25c1.714-12.918,3.131-26.276,4.291-39.458H215.546
		l0.035,29.092h4.397v60.921h5.363l-9.762,53.257c15.349,35.153,41.605,89.809,52.51,132.213
		C268.672,468.168,269.25,470.444,269.822,472.729z"/>
	<path fill="#058DD1" d="M354.954,616.441c-8.395,4.073-24.623,6.666-24.623,6.666s11.687-6.102,18.361-11.727
		c-1.494-17.162-6.792-78.927-10.943-135.495l-14.298,1.444c-0.818,11.197-10.13,20.029-21.533,20.029
		c-9.887,0-18.21-6.657-20.775-15.728l-8.904,0.896c15.736,64.866,27.468,133.534,27.468,133.534s-13.665,22.071-13.831,32.774
		c-0.169,10.697,0,18.606,41.489,20.576c0,0,57.788,2.119,64.501-0.205C404.343,664.887,430.967,622.327,354.954,616.441z"/>
	<path fill="#058DD1" d="M239.224,95.588c0,13.152-10.546,23.821-23.643,24.055v4.427c15.54-0.239,28.067-12.891,28.067-28.482
		s-12.527-28.249-28.067-28.482v4.428C228.677,71.765,239.224,82.433,239.224,95.588z"/>
	<circle fill="#058DD1" cx="215.788" cy="-100.053" r="26.918"/>
	<path fill="#058DD1" d="M368.813-219.443l-0.194-0.639l-13.809,14.635l-7.112-1.004l-7.304,6.047l-15.433-4.026l15.315,0.251
		l6.819-6.824l7.604,1.78l13.895-10.936l-9.31-30.031l1.089-23.997l-10.807-0.094l-4.835,21.499l-6.884-26.568l-11.108,1.744
		l4.406,27.702l-17.702-27.783l-11.422,8.518l13.319,26.465l-19.134-16.348l-9.77,10.861l18.505,21.776l3.834,5.537
		c0.266-1.924,3.372-19.147,28.649-13.921c0,0-18.016-2.471-28.599,14l0.088,0.123l-0.145-0.043c-0.008,0.01-0.014,0.014-0.02,0.026
		c0,0,0.004-0.02,0.004-0.026l-22.146-6.232l-8.525,14.135l32.951,5.508c3.078,4.686,10.587,16.384,19.22,31.611
		c2.184,0.605,14.913,2.865,42.466-15.749c0,0-7.876,14.038-37.93,23.898c3.201,5.867,6.465,12.108,9.663,18.58
		c5.287,0.275,17.837-1.298,39.794-16.135c0,0-7.585,13.537-36.3,23.358c3.574,7.6,6.965,15.412,9.954,23.203
		c6.356-0.42,18.249-3.397,37.049-16.098c0,0-7.238,13.019-34.59,22.79c2.947,8.376,5.312,16.64,6.854,24.497
		c6.584-0.68,18.188-3.992,35.964-16.006c0,0-7.286,13.095-34.827,22.869c0.877,6.597,1.044,12.806,0.315,18.443
		c4.325,6.853,11.562,14.93,22.16,16.318c0,0-12.717,0.539-24.559-6.516c-9.024,23.23-41.059,41.364-66.371,52.497
		c-0.806-0.218-1.634-0.44-2.457-0.658c-2.732,4.589-5.41,10.332-5.41,15.182c0,6.521-3.227-4.169-3.645-17.512
		c-7.394-1.82-15.369-3.583-23.687-5.107c0,0,16.639-79.402,16.639-88.518c0-9.118-10.294-43.181-50.292-51.354
		c1.353-4.788-1.96-9.517-1.96-9.517c-0.925,4.629-2.165,5.096-3.396,5.096c-5.557,0-8.334-14.199-8.334-14.199
		c-0.725,0.724-1.304,1.446-1.777,2.169c-3.471,5.277-0.849,10.177-0.849,10.177c0.302,0.284,0.547,0.66,0.849,0.855v41.262
		c8.883,0.015,16.073,7.216,16.073,16.097c0,1.316-0.176,2.588-0.47,3.812c-1.713-7.039-8.038-12.269-15.604-12.281v54.803
		c13.136,0,28.186-2.472,43.436-10.097c0,0-3.022,35.021-40.383,35.021c-1.042,0-2.057-0.033-3.053-0.089v57.142l0.605,0.238
		l49.45-20.005l-49.45,25.957l-0.605-0.305v18.68c21.07,0.233,38.083,17.366,38.083,38.496c0,21.129-17.013,38.261-38.083,38.5
		v31.361l112.878,21.658c3.328-38.108,4.558-76.07,4.873-106.983c-15.147-3.503-21.527-21.621-21.527-21.621
		c8.342,8.901,20.987,10.741,21.605,10.822c0-0.167,0-0.342,0-0.504c4.899-3.926,9.962-8.225,15.168-12.839
		c-12.191-14.329-17.438-31.952-17.438-31.952c5.783,9.829,18.037,20.042,24.837,25.265c4.224-3.888,8.546-7.982,12.972-12.29
		c-13.073-14.549-18.668-33.348-18.668-33.348c6.12,10.403,19.507,21.248,25.98,26.137c4.26-4.25,8.604-8.668,13.046-13.266
		c-12.619-14.444-18.032-32.634-18.032-32.634c5.824,9.903,18.208,20.191,24.976,25.377c4.487-4.734,9.056-9.607,13.727-14.669
		C469.257-69.61,368.813-219.443,368.813-219.443z M406.886-27.833c-4.773,0-8.646-3.87-8.646-8.645
		c0-4.776,3.871-8.645,8.646-8.645c4.772,0,8.645,3.867,8.645,8.645C415.53-31.702,411.658-27.833,406.886-27.833z"/>
	<path fill="#2BABE2" d="M301.173,484.387c4.775,0,8.648-3.866,8.648-8.643c0-4.778-3.872-8.645-8.648-8.645
		c-4.77,0-8.641,3.866-8.641,8.645C292.532,480.521,296.403,484.387,301.173,484.387z"/>
	<path fill="#2BABE2" d="M219.98,280.435v-10.258c2.16-0.515,4.19-1.37,6.027-2.499l7.255,7.252l6.839-6.837l-7.257-7.252
		c1.136-1.84,1.985-3.866,2.503-6.034h10.254l0.008-9.665h-10.262c-0.513-2.163-1.367-4.192-2.503-6.032l7.257-7.252l-6.839-6.84
		l-7.249,7.253c-1.843-1.129-3.868-1.98-6.033-2.496v-10.261h-4.398v60.921H219.98z"/>
	<polygon fill="#2BABE2" points="265.639,12.76 216.188,32.765 215.581,32.526 215.581,38.412 216.188,38.716 	"/>
	<path fill="#0174B3" d="M253.665,95.588c0-21.129-17.014-38.262-38.084-38.496v10.012c15.54,0.233,28.067,12.891,28.067,28.482
		c0,15.591-12.527,28.245-28.067,28.482v10.017C236.651,133.847,253.665,116.718,253.665,95.588z"/>
	<path fill="#2BABE2" d="M227.765,113.196c7.333-5.246,10.371-14.207,8.353-22.312c0.403,6.991-2.718,14.081-8.918,18.522
		c-0.032,0.03-0.071,0.049-0.105,0.073c0.138-0.39,0.221-0.805,0.221-1.238c0-2.111-1.707-3.823-3.816-3.823
		c-2.117,0-3.821,1.711-3.821,3.823c0,1.772,1.211,3.259,2.856,3.689c-2.256,0.891-4.604,1.371-6.948,1.472v3.808
		C219.796,117.145,224.054,115.848,227.765,113.196z"/>
	<path fill="#2BABE2" d="M215.581,78.922v12.132c1.149-1.743,1.825-3.825,1.825-6.07C217.406,82.744,216.73,80.661,215.581,78.922z"
		/>
	<path fill="#2BABE2" d="M239.224,95.588c0-13.153-10.546-23.821-23.643-24.055v0.004c13.094,0.234,23.637,10.904,23.637,24.052
		c0,13.149-10.542,23.818-23.637,24.051v0.006C228.677,119.409,239.224,108.74,239.224,95.588z"/>
	<path fill="#2BABE2" d="M224.013,250.011c0-4.78-3.87-8.646-8.642-8.646c-4.774,0-8.648,3.866-8.648,8.646
		c0,4.775,3.871,8.641,8.648,8.641C220.143,258.649,224.013,254.786,224.013,250.011z"/>
	<path fill="#FFFFFF" d="M215.581,241.377v17.262c4.672-0.112,8.432-3.925,8.432-8.628
		C224.013,245.302,220.253,241.491,215.581,241.377z"/>
</g>
<g>
	<circle fill="#F4F5F5" cx="214.981" cy="95.588" r="24.075"/>
</g>
<g>
	<circle fill="#FFFFFF" cx="214.35" cy="98.012" r="40.859"/>
	<path fill="#2BABE2" d="M215.429,56.81v82.399c22.186-0.686,39.977-18.843,39.977-41.197S237.614,57.497,215.429,56.81z"/>
	<circle fill="#0472B6" cx="214.349" cy="98.012" r="34.513"/>
	<path fill="#2BABE2" d="M239.891,98.012c0,14.111-11.435,25.538-25.541,25.538c-14.11,0-25.545-11.426-25.545-25.538
		c0-14.111,11.435-25.542,25.545-25.542C228.456,72.469,239.891,83.901,239.891,98.012z"/>
	<circle fill="#2BABE2" cx="214.372" cy="98.116" r="7.792"/>
</g>
<g>
	<g>
		<path fill="#2BABE2" d="M333.274,68.487"/>
	</g>
</g>
<g>
	<path fill="#FFFFFF" d="M215.56-105.308c0.008,0,0.015,0.006,0.021,0.006c7.565,0.008,13.892,5.24,15.604,12.28
		c0.293-1.226,0.471-2.5,0.471-3.812c0-8.883-7.192-16.083-16.075-16.097c-0.007,0-0.014,0-0.021,0
		c-8.89,0-16.095,7.205-16.095,16.097c0,1.314,0.178,2.587,0.475,3.812C201.657-100.07,207.989-105.308,215.56-105.308z"/>
</g>
<g>
	<path fill="#FFFFFF" d="M206.413,98.527c-0.073,0.7,0.2,1.389,0.346,1.949c0.156,0.603,0.316,1.219,0.251,2.043
		c-0.197,2.526-2.051,4.362-4.339,4.782c-2.819,0.515-4.987-1.199-5.786-3.146c-0.446-1.089-0.56-2.589-0.095-3.836
		c0.591-1.586,1.821-2.831,3.555-3.302c0.596-0.163,1.221-0.253,1.761-0.503c0.735-0.341,1.361-1.1,1.353-2.139
		c-0.004-0.515-0.214-0.952-0.345-1.415c-0.138-0.477-0.246-0.953-0.284-1.479c-0.079-1.057,0.17-2.077,0.598-2.862
		c0.371-0.679,0.933-1.357,1.667-1.857c0.708-0.479,1.604-0.797,2.705-0.879c1.449-0.106,2.808,0.492,3.647,1.196
		c0.862,0.725,1.53,1.652,1.794,3.019c0.574,2.987-1.257,5.265-3.365,6.007c-0.641,0.225-1.515,0.268-2.14,0.566
		C207.095,96.974,206.511,97.588,206.413,98.527z M215.565,107.301c-2.821,0.515-4.988-1.199-5.787-3.146
		c-0.447-1.089-0.56-2.589-0.094-3.836c0.59-1.586,1.821-2.831,3.555-3.302c0.594-0.163,1.218-0.253,1.76-0.503
		c0.734-0.341,1.36-1.1,1.352-2.139c-0.004-0.515-0.213-0.952-0.346-1.415c-0.135-0.477-0.244-0.953-0.283-1.479
		c-0.08-1.057,0.169-2.077,0.599-2.862c0.371-0.679,0.932-1.357,1.666-1.857c0.708-0.479,1.606-0.797,2.706-0.879
		c1.45-0.106,2.808,0.492,3.646,1.196c0.864,0.725,1.529,1.652,1.794,3.019c0.575,2.987-1.257,5.265-3.365,6.007
		c-0.641,0.225-1.516,0.268-2.139,0.566c-0.639,0.303-1.223,0.917-1.321,1.855c-0.072,0.702,0.2,1.391,0.346,1.95
		c0.157,0.604,0.317,1.22,0.252,2.043C219.708,105.045,217.854,106.881,215.565,107.301z M225.629,107.048
		c-1.693-0.67-3.237-2.246-3.396-4.561c-0.119-1.719,0.559-3.022,1.321-3.9c0.372-0.428,0.869-0.852,1.446-1.164
		c0.571-0.307,1.277-0.531,2.078-0.598c2.509-0.207,4.354,1.242,5.157,2.799c0.501,0.975,0.726,2.159,0.534,3.335
		C232.281,105.924,229.034,108.394,225.629,107.048z"/>
</g>
</svg>
